<svg width="220" height="40" viewBox="0 0 220 40" fill="none" xmlns="http://www.w3.org/2000/svg">
<g id="volume2" clip-path="url(#clip0_316_4)">
<rect id="fullbar" width="220" height="40" rx="12" fill="#343434"/>
<rect id="bar" width="159" height="40" rx="12" fill="white"/>
<g id="fullvolume">
<path id="Speaker" d="M29.7683 8C28.9371 8 28.0929 8.24714 27.258 8.73653L22.3095 11.6339C20.9173 12.4501 18.2274 13.1639 16.5539 13.1639C13.4918 13.1639 11 15.3523 11 18.0416V21.2934C11 23.9826 13.4918 26.1711 16.5539 26.1711C18.2274 26.1711 20.9173 26.8849 22.3095 27.7011L27.2561 30.5968C28.0911 31.0862 28.9353 31.3333 29.7665 31.3333C31.4289 31.335 33.2154 30.2277 33.2154 27.797V11.538C33.2154 9.10724 31.4289 8 29.7683 8ZM16.5539 22.9193C16.0629 22.9193 15.592 22.748 15.2448 22.4431C14.8976 22.1382 14.7026 21.7246 14.7026 21.2934V18.0416C14.7026 17.6104 14.8976 17.1968 15.2448 16.8919C15.592 16.587 16.0629 16.4157 16.5539 16.4157C18.7958 16.4157 21.9355 15.6109 23.959 14.5524V24.7842C21.9355 23.7241 18.7958 22.9193 16.5539 22.9193ZM29.5129 27.797L29.5018 27.9921L29.3092 27.8913L25.8103 25.8427V13.4923L29.3111 11.442L29.5036 11.3412L29.5129 11.538V27.797Z" fill="white"/>
<path id="first" d="M39.1414 15.1412C38.9693 14.9904 38.7651 14.8709 38.5404 14.7895C38.3157 14.7081 38.0749 14.6664 37.8318 14.6667C37.5887 14.667 37.3481 14.7093 37.1237 14.7913C36.8992 14.8733 36.6954 14.9933 36.5237 15.1444C36.3521 15.2956 36.216 15.475 36.1233 15.6723C36.0306 15.8697 35.9831 16.0811 35.9834 16.2946C35.9838 16.5081 36.032 16.7194 36.1253 16.9166C36.2187 17.1137 36.3553 17.2927 36.5274 17.4435C37.1661 18.0044 37.5179 18.7491 37.5179 19.5425C37.5179 20.3376 37.1661 21.0839 36.5256 21.6464C36.1784 21.9513 35.9834 22.3648 35.9834 22.7959C35.9834 23.2271 36.1784 23.6406 36.5256 23.9454C36.8727 24.2503 37.3435 24.4216 37.8344 24.4216C38.3254 24.4216 38.7962 24.2503 39.1433 23.9454C40.4836 22.7699 41.2204 21.2058 41.2204 19.5425C41.2204 17.8792 40.4836 16.3167 39.1414 15.1412Z" fill="white"/>
<path id="third" d="M50.2273 8.49465C50.0562 8.33958 49.8518 8.21599 49.6258 8.13107C49.3998 8.04615 49.1568 8.00161 48.911 8.00004C48.6652 7.99848 48.4215 8.03992 48.1941 8.12196C47.9667 8.20399 47.7602 8.32497 47.5866 8.47784C47.4131 8.63071 47.2759 8.81241 47.1831 9.01234C47.0904 9.21226 47.0439 9.42641 47.0464 9.64228C47.0488 9.85816 47.1002 10.0714 47.1976 10.2697C47.2949 10.4679 47.4362 10.6472 47.6133 10.7969C48.9033 11.9219 49.9263 13.2605 50.6229 14.7353C51.3195 16.21 51.6758 17.7916 51.6713 19.3882C51.678 20.9894 51.3226 22.5757 50.6257 24.0553C49.9287 25.5348 48.9042 26.8781 47.6114 28.0071C47.4395 28.1581 47.3032 28.3373 47.2101 28.5345C47.1171 28.7317 47.0693 28.9431 47.0693 29.1566C47.0693 29.3701 47.1171 29.5815 47.2101 29.7787C47.3032 29.976 47.4395 30.1552 47.6114 30.3061C47.7833 30.4571 47.9873 30.5768 48.2119 30.6585C48.4365 30.7402 48.6772 30.7823 48.9203 30.7823C49.1633 30.7823 49.404 30.7402 49.6286 30.6585C49.8532 30.5768 50.0572 30.4571 50.2291 30.3061C51.867 28.8754 53.1651 27.1733 54.0483 25.2986C54.9314 23.4238 55.382 21.4138 55.3738 19.3849C55.3796 17.3609 54.9277 15.3559 54.0442 13.4865C53.1607 11.617 51.8633 9.92024 50.2273 8.49465Z" fill="white"/>
<path id="sec" d="M44.6959 11.828C44.5248 11.6729 44.3204 11.5493 44.0944 11.4644C43.8684 11.3795 43.6254 11.335 43.3796 11.3334C43.1338 11.3318 42.8901 11.3733 42.6627 11.4553C42.4353 11.5373 42.2288 11.6583 42.0552 11.8112C41.8817 11.9641 41.7445 12.1458 41.6517 12.3457C41.559 12.5456 41.5125 12.7598 41.515 12.9756C41.5174 13.1915 41.5688 13.4048 41.6662 13.603C41.7635 13.8013 41.9048 13.9805 42.0818 14.1303C42.8845 14.83 43.521 15.6627 43.9544 16.5801C44.3879 17.4975 44.6097 18.4814 44.607 19.4746C44.6109 20.4708 44.3896 21.4578 43.9558 22.3783C43.522 23.2988 42.8844 24.1345 42.08 24.8368C41.7329 25.1417 41.5378 25.5552 41.5378 25.9864C41.5378 26.4175 41.7329 26.831 42.08 27.1359C42.4271 27.4407 42.8979 27.612 43.3889 27.612C43.8798 27.612 44.3506 27.4407 44.6977 27.1359C45.8471 26.132 46.7582 24.9378 47.3782 23.6224C47.9982 22.307 48.3148 20.8966 48.3096 19.473C48.3133 18.0521 47.9957 16.6446 47.3754 15.3323C46.7551 14.02 45.8443 12.8289 44.6959 11.828Z" fill="white"/>
<rect id="cross" x="0.680295" y="-0.0238379" width="2.82903" height="33" rx="1.41452" transform="matrix(0.654641 -0.755939 0.705948 0.708264 11.2592 10.4018)" fill="white" stroke="black" stroke-linejoin="round"/>
</g>
</g>
<defs>
<clipPath id="clip0_316_4">
<rect width="220" height="40" fill="white"/>
</clipPath>
</defs>
</svg>
